<svg xmlns="http://www.w3.org/2000/svg" width="32" height="32"><path fill="#ffd05b" d="M32 16c0 8.837-7.163 16-16 16S0 24.837 0 16 7.163 0 16 0s16 7.163 16 16z"/><path fill="#f1543f" d="M20.14 10.133a4.14 4.14 0 1 1-8.28 0 4.14 4.14 0 0 1 8.28 0z"/><path fill="#2c9984" d="M16.711 14.298h6.832v-.229a4.14 4.14 0 0 0-4.14-4.14 4.166 4.166 0 0 0-3.429 1.803c.457.66.711 1.473.711 2.337.025.076.025.152.025.229z"/><path fill="#e6e9ee" d="M16 11.759a4.13 4.13 0 0 0-3.429-1.803 4.14 4.14 0 0 0-4.14 4.14v.229h8.254v-.229a3.901 3.901 0 0 0-.686-2.337z"/><path fill="#2b3b4e" d="M23.543 14.298H7.975a.471.471 0 0 0-.457.559l2.057 10.768a.462.462 0 0 0 .457.381h11.936a.461.461 0 0 0 .457-.381l2.057-10.768a.47.47 0 0 0-.457-.559h-.483z"/><path fill="#fff" d="m11.022 24.025-1.473-7.644a.308.308 0 0 1 .305-.356h12.292c.203 0 .33.178.305.356l-1.473 7.644a.302.302 0 0 1-.305.254h-9.346a.303.303 0 0 1-.305-.254z"/><path fill="#f1543f" d="M16 17.397c.635-.787 1.524-.965 2.184-.711 1.549.584 1.93 2.794.584 4.19L16 23.72l-2.768-2.87c-1.346-1.397-.965-3.606.584-4.19.66-.229 1.549-.051 2.184.736z"/></svg>