<!-- Generated by IcoMoon.io -->
<svg version="1.1" xmlns="http://www.w3.org/2000/svg" width="32" height="32" viewBox="0 0 32 32">
<title>ice-cream-svgrepo-com-1</title>
<path fill="#ffd05b" d="M32 16c0 8.837-7.163 16-16 16s-16-7.163-16-16c0-8.837 7.163-16 16-16s16 7.163 16 16z"></path>
<path fill="#f1543f" d="M20.14 10.133c0 2.286-1.853 4.14-4.14 4.14s-4.14-1.853-4.14-4.14c0-2.286 1.853-4.14 4.14-4.14s4.14 1.853 4.14 4.14z"></path>
<path fill="#2c9984" d="M16.711 14.298h6.832c0-0.076 0-0.152 0-0.229 0-2.286-1.854-4.14-4.14-4.14-1.422 0-2.667 0.711-3.429 1.803 0.457 0.66 0.711 1.473 0.711 2.337 0.025 0.076 0.025 0.152 0.025 0.229z"></path>
<path fill="#e6e9ee" d="M16 11.759c-0.736-1.092-2.006-1.803-3.429-1.803-2.286 0-4.14 1.854-4.14 4.14 0 0.076 0 0.152 0 0.229h8.254c0-0.076 0-0.152 0-0.229 0.025-0.864-0.229-1.676-0.686-2.337z"></path>
<path fill="#2b3b4e" d="M23.543 14.298h-15.568c-0.279 0-0.508 0.254-0.457 0.559l2.057 10.768c0.051 0.229 0.229 0.381 0.457 0.381h11.936c0.229 0 0.406-0.152 0.457-0.381l2.057-10.768c0.051-0.279-0.152-0.559-0.457-0.559h-0.483z"></path>
<path fill="#fff" d="M11.022 24.025l-1.473-7.644c-0.025-0.178 0.102-0.356 0.305-0.356h12.292c0.203 0 0.33 0.178 0.305 0.356l-1.473 7.644c-0.025 0.152-0.152 0.254-0.305 0.254h-9.346c-0.152 0-0.279-0.102-0.305-0.254z"></path>
<path fill="#f1543f" d="M16 17.397c0.635-0.787 1.524-0.965 2.184-0.711 1.549 0.584 1.93 2.794 0.584 4.19-2.768 2.844-2.768 2.844-2.768 2.844s0 0-2.768-2.87c-1.346-1.397-0.965-3.606 0.584-4.19 0.66-0.229 1.549-0.051 2.184 0.736z"></path>
</svg>
